# xmcd CD database file
#
# Track frame offsets:
#	150
#	15293
#	55393
#	93825
#	117193
#	144205
#	174850
#
# Disc length: 2564 seconds
#
# Revision: 0
# Processed by: cddbd v1.5.1PL0 Copyright (c) Steve Scherf et al.
# Submitted via: CDex 1.51
#
DISCID=470a0207
DTITLE=Pat Metheny Group - Offramp
DYEAR=1981
DGENRE=Jazz
TTITLE0=Barcarole
TTITLE1=Are You Going With Me?
TTITLE2=Au Lait
TTITLE3=Eighteen
TTITLE4=Offramp
TTITLE5=James
TTITLE6=The Bat, Pt. 2
EXTD=YEAR: 1981
EXTT0=
EXTT1=
EXTT2=
EXTT3=
EXTT4=
EXTT5=
EXTT6=
PLAYORDER=
